<svg xmlns="http://www.w3.org/2000/svg" viewBox="0 0 800 264" font-family="sans-serif">
  <style>
    .rule { stroke: #eef2f7; stroke-width: 1; }
    .box { fill: #fff; stroke: #0f172a; stroke-width: 1.5; }
    .soft { fill: #f8fafc; stroke: #0f172a; stroke-width: 1.5; }
    .label { font-size: 14px; font-weight: bold; fill: #0f172a; text-anchor: middle; }
    .small { font-size: 12px; font-weight: bold; fill: #0f172a; text-anchor: middle; }
    .sub { font-size: 11px; fill: #475569; text-anchor: middle; }
    .arrow { stroke: #0f172a; stroke-width: 1.5; fill: none; marker-end: url(#a); }
    .red { stroke: #dc2626; stroke-width: 1.5; fill: none; marker-end: url(#r); stroke-dasharray: 5 3; }
    .tag { font-size: 11px; font-weight: bold; fill: #dc2626; text-anchor: middle; }
    .note { font-size: 11px; fill: #64748b; text-anchor: middle; }
  </style>
  <defs>
    <marker id="a" markerWidth="8" markerHeight="8" refX="7" refY="4" orient="auto"><path d="M0,0 L8,4 L0,8 z" fill="#0f172a"/></marker>
    <marker id="r" markerWidth="8" markerHeight="8" refX="7" refY="4" orient="auto"><path d="M0,0 L8,4 L0,8 z" fill="#dc2626"/></marker>
  </defs>
  <line class="rule" x1="0" y1="44" x2="800" y2="44"/>
  <line class="rule" x1="0" y1="88" x2="800" y2="88"/>
  <line class="rule" x1="0" y1="132" x2="800" y2="132"/>
  <line class="rule" x1="0" y1="176" x2="800" y2="176"/>
  <line class="rule" x1="0" y1="220" x2="800" y2="220"/>
  <rect class="box" x="20" y="44" width="320" height="84"/>
  <text class="label" x="180" y="83">외부환경분석 — 기회/위협</text>
  <text class="sub" x="180" y="102">PEST · 5 Force · 3C</text>
  <rect class="box" x="20" y="148" width="320" height="84"/>
  <text class="label" x="180" y="187">내부환경분석 — 강점/약점</text>
  <text class="sub" x="180" y="206">Value Chain · BSC · 7S · 자원분석</text>
  <path class="arrow" d="M340,86 L450,120"/>
  <path class="arrow" d="M340,190 L450,156"/>
  <rect class="soft" x="452" y="96" width="160" height="84"/>
  <text class="label" x="532" y="135">SWOT</text>
  <text class="sub" x="532" y="154">종합 → 전략 도출</text>
  <path class="arrow" d="M612,138 L660,138"/>
  <rect class="box" x="662" y="106" width="118" height="64"/>
  <text class="small" x="721" y="135">경영/IT 전략</text>
  <text class="sub" x="721" y="154">시사점 반영</text>
  <text class="note" x="400" y="250">〈 환경분석 — 밖에서 기회·위협, 안에서 강점·약점을 찾아 전략으로 〉</text>

</svg>
